<svg xmlns="http://www.w3.org/2000/svg" viewBox="0 0 553.61 96.75"><defs><style>.cls-1,.cls-2{fill:#9486e0;isolation:isolate;}.cls-1,.cls-2,.cls-3,.cls-4,.cls-5{fill-rule:evenodd;}.cls-1{opacity:0.3;}.cls-2{opacity:0.7;}.cls-3,.cls-4,.cls-5{fill:#8bcdea;}.cls-3{opacity:0.6;}.cls-4{opacity:0.3;}.cls-6{fill:#232323;}</style></defs><g id="Layer_2" data-name="Layer 2"><g id="Layer_1-2" data-name="Layer 1"><path class="cls-1" d="M4.81,82.09A49.19,49.19,0,0,1,18.88,58.94c12.35,1.23,23.27-4.33,29.32-8.37-5.71,4.5-14.37,13.18-17,25.31A49,49,0,0,1,4.81,82.09Z"/><path class="cls-2" d="M4.81,14.82S19,13.9,31.18,21c2.65,12.13,11.31,20.8,17,25.3-6.06-4-17-9.6-29.33-8.35C8.3,28.56,4.81,14.82,4.81,14.82Z"/><path class="cls-3" d="M0,48.48c14.56-12,33.14-11.3,47.81,0C33.36,60.44,14.67,59.78,0,48.48Z"/><path class="cls-4" d="M35.28,96.75A37.2,37.2,0,0,1,50.06,51.28,37.17,37.17,0,0,1,35.28,96.75Z"/><path class="cls-5" d="M35,0A37.21,37.21,0,0,1,49.79,45.47,37.17,37.17,0,0,1,35,0Z"/><path class="cls-6" d="M112.14,17.05v7.63H88v16.8h18.86v7.63H88V74H78.61v-57Z"/><path class="cls-6" d="M143.29,74,132.79,55.8h-5.71V74h-7.47V28.45h15.74a19.65,19.65,0,0,1,8.89,1.83,12.76,12.76,0,0,1,5.44,4.92,13.35,13.35,0,0,1,1.81,6.89,13.67,13.67,0,0,1-2.59,8.1,13.19,13.19,0,0,1-8,5L152.21,74ZM127.08,49.83h8.27q4.2,0,6.33-2.1a7.56,7.56,0,0,0,2.13-5.64,7.28,7.28,0,0,0-2.1-5.54q-2.1-2-6.36-2h-8.27Z"/><path class="cls-6" d="M168.54,28.45V74h-7.48V28.45Z"/><path class="cls-6" d="M185.86,34.48V47.86h15.75V54H185.86v14h17.71V74H178.38V28.38h25.19v6.1Z"/><path class="cls-6" d="M250.21,74h-7.47L220.23,40V74h-7.47V28.38h7.47l22.51,34v-34h7.47Z"/><path class="cls-6" d="M287.7,31.23a19.92,19.92,0,0,1,8.47,8,24,24,0,0,1,3,12.17,23.54,23.54,0,0,1-3,12.07,19.72,19.72,0,0,1-8.47,7.84A28.37,28.37,0,0,1,274.94,74H260.05V28.45h14.89A27.86,27.86,0,0,1,287.7,31.23Zm-.49,32.38q4.26-4.34,4.27-12.2T287.21,39q-4.26-4.45-12.27-4.46h-7.41V67.94h7.41Q282.95,67.94,287.21,63.61Z"/><path class="cls-6" d="M313.32,72.89a13.53,13.53,0,0,1-5.77-4.56,11.57,11.57,0,0,1-2.1-6.89h8a7.25,7.25,0,0,0,2.33,4.86,8.25,8.25,0,0,0,5.81,1.9,8.9,8.9,0,0,0,6-1.87,6.09,6.09,0,0,0,2.17-4.82,5.25,5.25,0,0,0-1.35-3.74,9,9,0,0,0-3.34-2.23,54,54,0,0,0-5.55-1.71,51.19,51.19,0,0,1-7.25-2.39,12,12,0,0,1-4.75-3.77,10.92,10.92,0,0,1-2-6.82,12.14,12.14,0,0,1,2-6.89,12.56,12.56,0,0,1,5.51-4.53,20,20,0,0,1,8.2-1.57,17.1,17.1,0,0,1,10.86,3.31,12.24,12.24,0,0,1,4.69,9.08h-8.27A6,6,0,0,0,326.18,36a8.76,8.76,0,0,0-5.71-1.77,8.14,8.14,0,0,0-5.25,1.64,5.72,5.72,0,0,0-2,4.72A4.83,4.83,0,0,0,314.47,44a9.1,9.1,0,0,0,3.25,2.13,50.62,50.62,0,0,0,5.38,1.7,57.63,57.63,0,0,1,7.37,2.5,12.27,12.27,0,0,1,4.86,3.84,11,11,0,0,1,2,6.92,12.44,12.44,0,0,1-1.87,6.56A13.58,13.58,0,0,1,330,72.63a18,18,0,0,1-8.43,1.87A20.44,20.44,0,0,1,313.32,72.89Z"/><path class="cls-6" d="M376.59,71.51a22.12,22.12,0,0,1-8.46-8.33,23.41,23.41,0,0,1-3.12-12,23.24,23.24,0,0,1,3.12-12,22.25,22.25,0,0,1,8.46-8.3,24.63,24.63,0,0,1,23.49,0,22,22,0,0,1,8.43,8.3,23.51,23.51,0,0,1,3.08,12,23.68,23.68,0,0,1-3.08,12,21.9,21.9,0,0,1-8.43,8.33,24.56,24.56,0,0,1-23.49,0Zm19.78-5.57A14.32,14.32,0,0,0,401.91,60a18.88,18.88,0,0,0,2-8.89,18.69,18.69,0,0,0-2-8.85,14.14,14.14,0,0,0-5.54-5.84,17.06,17.06,0,0,0-16.14,0,14.14,14.14,0,0,0-5.54,5.84,18.69,18.69,0,0,0-2,8.85,18.88,18.88,0,0,0,2,8.89,14.32,14.32,0,0,0,5.54,5.91,16.84,16.84,0,0,0,16.14,0Z"/><path class="cls-6" d="M445.77,28.45v6.1H426.41V48H441.5v6.1H426.41V74h-7.48V28.45Z"/><path class="cls-6" d="M484.62,24.59V41.32H504.3V49H484.62V66.41h22.14V74H475.27V17h31.49v7.62Z"/><path class="cls-6" d="M524.48,68H539.9v6H517V28.45h7.47Z"/><path class="cls-6" d="M553.61,28.45V74h-7.48V28.45Z"/></g></g></svg>