<svg xmlns="http://www.w3.org/2000/svg" viewBox="0 0 102 102"><path d="M51,0A51,51,0,1,1,0,51,51,51,0,0,1,51,0Zm1.4,41.67-8.95,1C41.47,51.27,40,56.4,36,61h0l2,2c4.68-5.23,6.08-11.22,7.76-17.75h0l5.64-.63,6,6-.62,5.64C50.24,58,44.24,59.36,39,64h0l2,2c4.64-4,9.77-5.46,18.38-7.45h0l1-8.93Zm-2,9.93a2.81,2.81,0,1,0-4,4h0a2.81,2.81,0,0,0,4-4Zm5.46-14.4a.71.71,0,0,0-1.19.4h0l-.3,2.09,7.95,7.94,2.07-.32a.72.72,0,0,0,.57-.48.69.69,0,0,0-.18-.71h0Z" style="fill:#403e3b;fill-rule:evenodd"/><rect x="20.78" y="29.52" width="63.52" height="45.52" style="fill:#403e3b"/><text transform="translate(10.67 71.63)" style="font-size:60px;fill:#fff;font-family:JavaneseText, Javanese Text">RR</text></svg>